<?xml version="1.0" encoding="UTF-8"?>
<svg width="342px" height="342px" viewBox="0 0 342 342" version="1.1" xmlns="http://www.w3.org/2000/svg" xmlns:xlink="http://www.w3.org/1999/xlink">
    <!-- Generator: Sketch 43.2 (39069) - http://www.bohemiancoding.com/sketch -->
    <title>dices</title>
    <desc>Created with Sketch.</desc>
    <defs></defs>
    <g id="Page-1" stroke="none" stroke-width="1" fill="none" fill-rule="evenodd">
        <g id="dices" fill-rule="nonzero" fill="#000">
            <path d="M85.338,221.867 C66.513,221.867 51.205,237.184 51.205,256 C51.205,274.825 66.514,290.133 85.338,290.133 C104.163,290.133 119.471,274.824 119.471,256 C119.471,237.184 104.162,221.867 85.338,221.867 Z M85.338,273.067 C75.926,273.067 68.271,265.421 68.271,256 C68.271,246.588 75.925,238.933 85.338,238.933 C94.742,238.933 102.405,246.587 102.405,256 C102.405,265.421 94.742,273.067 85.338,273.067 Z" id="Shape"></path>
            <path d="M341.338,298.667 L341.338,42.667 C341.338,19.149 322.198,0 298.671,0 L42.671,0 C19.145,0 0.005,19.149 0.005,42.667 L0.005,298.667 C0.005,322.193 19.145,341.334 42.672,341.334 L298.672,341.334 C322.198,341.333 341.338,322.193 341.338,298.667 Z M17.071,298.667 L17.071,42.667 C17.071,28.553 28.557,17.067 42.671,17.067 L298.671,17.067 C312.785,17.067 324.271,28.553 324.271,42.667 L324.271,298.667 C324.271,312.79 312.785,324.267 298.671,324.267 L42.671,324.267 C28.557,324.267 17.071,312.789 17.071,298.667 Z" id="Shape"></path>
            <path d="M85.338,51.2 C66.513,51.2 51.205,66.517 51.205,85.333 C51.205,104.158 66.514,119.466 85.338,119.466 C104.163,119.466 119.471,104.157 119.471,85.333 C119.471,66.517 104.162,51.2 85.338,51.2 Z M85.338,102.4 C75.926,102.4 68.271,94.754 68.271,85.333 C68.271,75.921 75.925,68.266 85.338,68.266 C94.742,68.266 102.405,75.92 102.405,85.333 C102.405,94.754 94.742,102.4 85.338,102.4 Z" id="Shape"></path>
            <path d="M170.671,136.533 C151.846,136.533 136.538,151.85 136.538,170.666 C136.538,189.491 151.847,204.799 170.671,204.799 C189.495,204.799 204.804,189.49 204.804,170.666 C204.805,151.851 189.496,136.533 170.671,136.533 Z M170.671,187.733 C161.259,187.733 153.604,180.087 153.604,170.666 C153.604,161.254 161.258,153.599 170.671,153.599 C180.075,153.599 187.738,161.253 187.738,170.666 C187.738,180.087 180.075,187.733 170.671,187.733 Z" id="Shape"></path>
            <path d="M256.005,221.867 C237.18,221.867 221.872,237.184 221.872,256 C221.872,274.825 237.181,290.133 256.005,290.133 C274.829,290.133 290.138,274.824 290.138,256 C290.138,237.184 274.829,221.867 256.005,221.867 Z M256.005,273.067 C246.593,273.067 238.938,265.421 238.938,256 C238.938,246.588 246.592,238.933 256.005,238.933 C265.409,238.933 273.072,246.587 273.072,256 C273.071,265.421 265.408,273.067 256.005,273.067 Z" id="Shape"></path>
            <path d="M256.005,51.2 C237.18,51.2 221.872,66.517 221.872,85.333 C221.872,104.158 237.181,119.466 256.005,119.466 C274.829,119.466 290.138,104.157 290.138,85.333 C290.138,66.517 274.829,51.2 256.005,51.2 Z M256.005,102.4 C246.593,102.4 238.938,94.754 238.938,85.333 C238.938,75.921 246.592,68.266 256.005,68.266 C265.409,68.266 273.072,75.92 273.072,85.333 C273.071,94.754 265.408,102.4 256.005,102.4 Z" id="Shape"></path>
        </g>
    </g>
</svg>