<?xml version="1.0" encoding="UTF-8"?>
<svg width="434px" height="487px" viewBox="0 0 434 487" version="1.1" xmlns="http://www.w3.org/2000/svg" xmlns:xlink="http://www.w3.org/1999/xlink">
    <!-- Generator: Sketch 43.2 (39069) - http://www.bohemiancoding.com/sketch -->
    <title>garbage</title>
    <desc>Created with Sketch.</desc>
    <defs></defs>
    <g id="Page-1" stroke="none" stroke-width="1" fill="none" fill-rule="evenodd">
        <g id="garbage" fill-rule="nonzero" fill="#0C1A24">
            <path d="M420,70 L318.8,70 L318.8,53.5 C318.8,24 294.8,0 265.3,0 L169.1,0 C139.6,0 115.6,24 115.6,53.5 L115.6,70 L14.4,70 C6.9,70 0.9,76 0.9,83.5 C0.9,91 6.9,97 14.4,97 L38.8,97 L38.8,414.2 C38.8,454 71.2,486.4 111,486.4 L323.4,486.4 C363.2,486.4 395.6,454 395.6,414.2 L395.6,97 L420,97 C427.5,97 433.5,91 433.5,83.5 C433.5,76 427.5,70 420,70 Z M142.6,53.5 C142.6,38.9 154.5,27 169.1,27 L265.3,27 C279.9,27 291.8,38.9 291.8,53.5 L291.8,70 L142.6,70 L142.6,53.5 Z M368.6,414.2 C368.6,439.1 348.3,459.4 323.4,459.4 L111,459.4 C86.1,459.4 65.8,439.1 65.8,414.2 L65.8,97 L368.7,97 L368.7,414.2 L368.6,414.2 Z" id="Shape"></path>
            <path d="M217.2,411 C224.7,411 230.7,405 230.7,397.5 L230.7,158.9 C230.7,151.4 224.7,145.4 217.2,145.4 C209.7,145.4 203.7,151.4 203.7,158.9 L203.7,397.4 C203.7,404.9 209.7,411 217.2,411 Z" id="Shape"></path>
            <path d="M129.1,396.1 C136.6,396.1 142.6,390.1 142.6,382.6 L142.6,173.7 C142.6,166.2 136.6,160.2 129.1,160.2 C121.6,160.2 115.6,166.2 115.6,173.7 L115.6,382.6 C115.6,390.1 121.7,396.1 129.1,396.1 Z" id="Shape"></path>
            <path d="M305.3,396.1 C312.8,396.1 318.8,390.1 318.8,382.6 L318.8,173.7 C318.8,166.2 312.8,160.2 305.3,160.2 C297.8,160.2 291.8,166.2 291.8,173.7 L291.8,382.6 C291.8,390.1 297.8,396.1 305.3,396.1 Z" id="Shape"></path>
        </g>
    </g>
</svg>