<?xml version="1.0" encoding="UTF-8"?>
<svg width="69px" height="55px" viewBox="0 0 69 55" version="1.1" xmlns="http://www.w3.org/2000/svg" xmlns:xlink="http://www.w3.org/1999/xlink">
    <!-- Generator: Sketch 43.2 (39069) - http://www.bohemiancoding.com/sketch -->
    <title>Artboard 2 Copy 2</title>
    <desc>Created with Sketch.</desc>
    <defs></defs>
    <g id="Page-1" stroke="none" stroke-width="1" fill="none" fill-rule="evenodd">
        <g id="Artboard-2-Copy-2" fill="#0C1A24">
            <path d="M57.6332604,37 L60.5221142,39.4248207 C60.9478308,39.782155 60.8669913,40.2021823 60.3286779,40.3669185 L50.4271755,43.3970047 L54.3886072,51.0736189 C54.8954575,52.0558129 54.4960072,53.2299032 53.4943274,53.6969942 L51.2905324,54.7246407 C50.2897849,55.1912969 49.0709161,54.7797282 48.5607851,53.7911769 L44.5993534,46.1145627 L35.9136097,51.7518518 C35.4464503,52.0550512 35.0676718,51.8553183 35.0675825,51.2944638 L35.0653046,37 L1.99062252,37 C0.89123206,37 0,36.1037214 0,34.9976004 L0,2.00239962 C0,0.896504848 0.897650985,0 1.99062252,0 L67.0093775,0 C68.1087679,0 69,0.896278629 69,2.00239962 L69,37 L57.6332604,37 Z M37.1196368,19.7814548 L57.6560722,37 L64.4671094,37 L38.4627018,14.3856337 C36.7277922,13.5529974 31.1925456,14.4173736 30.0563207,18.2153278 L30.0563207,37 L35.0639585,37 L35.0639585,28.5529424 L35.0624459,19.0609524 C35.0623574,18.5051446 35.4035316,18.3410054 35.8331136,18.7015842 L37.1196368,19.7814548 Z M9,24 C11.7614237,24 14,21.7614237 14,19 C14,16.2385763 11.7614237,14 9,14 C6.23857625,14 4,16.2385763 4,19 C4,21.7614237 6.23857625,24 9,24 Z M16.5979411,12.9514775 L23.056656,16.6804182 C24.0053861,17.2281678 25.2308543,16.9017381 25.7831391,15.9451529 C26.3392742,14.9818985 26.0101663,13.766826 25.056656,13.2163166 L18.5979411,9.48737584 C17.649211,8.93962627 16.4237428,9.26605593 15.8714581,10.2226412 C15.3153229,11.1858956 15.6444309,12.400968 16.5979411,12.9514775 Z M44.1036107,0.00758284912 L40.0133362,0.00758284912 L38.2059551,8.51413137 C37.9761542,9.59570355 38.6663192,10.6558737 39.7467512,10.8855266 C40.8347158,11.1167806 41.8890299,10.4263663 42.1184522,9.34701926 L44.1036107,0.00758284912 Z M26.2140288,3.53195216 L29.5024151,10.9177886 C29.9521521,11.9279147 31.1312082,12.3746184 32.1402826,11.9253495 C33.1563922,11.4729484 33.6043765,10.2965715 33.1565969,9.29084206 L29.8682106,1.90500559 C29.4184735,0.894879561 28.2394175,0.448175781 27.230343,0.897444672 C26.2142335,1.34984578 25.7662492,2.52622274 26.2140288,3.53195216 Z" id="Combined-Shape-Copy"></path>
        </g>
    </g>
</svg>