<?xml version="1.0" encoding="UTF-8"?>
<svg width="312px" height="228px" viewBox="0 0 312 228" version="1.1" xmlns="http://www.w3.org/2000/svg" xmlns:xlink="http://www.w3.org/1999/xlink">
    <!-- Generator: Sketch 43.2 (39069) - http://www.bohemiancoding.com/sketch -->
    <title>accept-button</title>
    <desc>Created with Sketch.</desc>
    <defs></defs>
    <g id="Page-1" stroke="none" stroke-width="1" fill="none" fill-rule="evenodd">
        <g id="accept-button" fill-rule="nonzero" fill="#0C1A24">
            <g id="Group">
                <path d="M90.992,220.794 C95.009,224.812 100.457,227.067 106.138,227.067 C111.82,227.067 117.267,224.811 121.284,220.794 L304.67,37.409 C313.035,29.044 313.035,15.482 304.67,7.117 C296.305,-1.248 282.742,-1.249 274.377,7.117 L106.138,175.357 L37.532,106.75 C29.167,98.384 15.605,98.384 7.24,106.75 C-1.125,115.115 -1.125,128.677 7.24,137.042 L90.992,220.794 Z" id="Shape"></path>
                <path d="M106.138,227.567 C100.283,227.567 94.778,225.287 90.638,221.147 L6.886,137.395 C-1.66,128.848 -1.66,114.942 6.886,106.395 C11.026,102.254 16.531,99.974 22.386,99.974 C28.241,99.974 33.745,102.254 37.886,106.395 L106.139,174.648 L274.024,6.762 C278.164,2.621 283.669,0.342 289.524,0.342 C295.378,0.342 300.883,2.622 305.024,6.762 C309.165,10.902 311.445,16.407 311.445,22.262 C311.445,28.117 309.165,33.621 305.024,37.762 L121.638,221.147 C117.499,225.287 111.994,227.567 106.138,227.567 Z M22.386,100.975 C16.798,100.975 11.545,103.151 7.594,107.103 C-0.562,115.26 -0.562,128.531 7.594,136.688 L91.346,220.44 C95.297,224.391 100.55,226.567 106.138,226.567 C111.727,226.567 116.98,224.391 120.931,220.44 L304.316,37.055 C308.267,33.104 310.444,27.85 310.444,22.263 C310.444,16.676 308.267,11.421 304.316,7.47 C300.365,3.518 295.111,1.343 289.523,1.343 C283.935,1.343 278.681,3.519 274.73,7.47 L106.138,176.063 L37.178,107.103 C33.227,103.151 27.974,100.975 22.386,100.975 Z" id="Shape"></path>
            </g>
        </g>
    </g>
</svg>