<?xml version="1.0" encoding="UTF-8"?>
<svg width="574px" height="612px" viewBox="0 0 574 612" version="1.1" xmlns="http://www.w3.org/2000/svg" xmlns:xlink="http://www.w3.org/1999/xlink">
    <!-- Generator: Sketch 43.2 (39069) - http://www.bohemiancoding.com/sketch -->
    <title>elemental-tip</title>
    <desc>Created with Sketch.</desc>
    <defs></defs>
    <g id="Page-1" stroke="none" stroke-width="1" fill="none" fill-rule="evenodd">
        <g id="elemental-tip" transform="translate(0.000000, -1.000000)" fill-rule="nonzero" fill="rgba(255, 239, 229, 1)">
            <path d="M287.001,24.596 C168.991,24.596 72.982,120.607 72.982,238.619 C72.982,322.009 120.928,394.404 190.694,429.709 L190.694,557.189 C190.694,587.964 215.732,613 246.505,613 L327.497,613 C358.27,613 383.308,587.962 383.308,557.189 L383.308,429.708 C453.074,394.405 501.023,322.009 501.023,238.62 C501.023,120.607 405.011,24.596 287.001,24.596 Z M303.646,415.572 C298.163,416.083 292.612,416.358 287,416.358 C281.384,416.358 275.833,416.083 270.35,415.572 C271.59,390.749 270.988,343.313 253.388,301.603 L320.61,301.603 C303.011,343.314 302.409,390.751 303.646,415.572 Z M347.028,520.152 L226.974,520.152 L226.974,444.056 C246.027,449.633 266.168,452.638 287.001,452.638 C307.834,452.638 327.975,449.634 347.028,444.056 L347.028,520.152 L347.028,520.152 Z M347.028,557.188 C347.028,567.959 338.268,576.719 327.497,576.719 L246.505,576.719 C235.734,576.719 226.974,567.957 226.974,557.188 L226.974,556.432 L347.028,556.432 L347.028,557.188 Z M339.717,408.377 C338.875,380.419 341.204,328.711 365.979,294.003 C369.926,288.473 370.452,281.201 367.342,275.16 C364.233,269.119 358.006,265.324 351.213,265.324 L222.787,265.324 C215.994,265.324 209.77,269.121 206.661,275.16 C203.548,281.201 204.078,288.473 208.025,294.003 C232.8,328.714 235.126,380.427 234.284,408.377 C161.937,385.864 109.262,318.277 109.262,238.618 C109.262,140.611 188.993,60.875 287.001,60.875 C385.009,60.875 464.743,140.611 464.743,238.618 C464.743,318.278 412.064,385.865 339.717,408.377 Z" id="Shape"></path>
            <path d="M52.591,79.157 C56.134,82.699 60.775,84.471 65.416,84.471 C70.06,84.471 74.701,82.699 78.244,79.156 C85.328,72.072 85.328,60.587 78.244,53.503 L31.053,6.314 C23.968,-0.771 12.482,-0.771 5.398,6.314 C-1.684,13.399 -1.684,24.883 5.398,31.967 L52.591,79.157 Z" id="Shape"></path>
            <path d="M508.584,84.47 C513.228,84.47 517.87,82.698 521.412,79.156 L568.599,31.968 C575.686,24.883 575.686,13.399 568.599,6.313 C561.512,-0.773 550.028,-0.771 542.944,6.313 L495.757,53.501 C488.67,60.586 488.67,72.072 495.757,79.156 C499.301,82.698 503.942,84.47 508.584,84.47 Z" id="Shape"></path>
            <path d="M521.412,398.078 C514.328,390.993 502.844,390.991 495.758,398.076 C488.671,405.161 488.671,416.645 495.758,423.729 L542.945,470.92 C546.488,474.463 551.129,476.234 555.773,476.234 C560.414,476.234 565.056,474.462 568.598,470.92 C575.685,463.838 575.685,452.351 568.598,445.267 L521.412,398.078 Z" id="Shape"></path>
            <path d="M52.591,398.076 L5.398,445.267 C-1.684,452.351 -1.684,463.836 5.398,470.922 C8.941,474.464 13.582,476.236 18.226,476.236 C22.867,476.236 27.512,474.466 31.051,470.922 L78.244,423.731 C85.328,416.646 85.328,405.162 78.244,398.076 C71.162,390.991 59.675,390.991 52.591,398.076 Z" id="Shape"></path>
        </g>
    </g>
</svg>